<svg width="29" height="25" viewBox="0 0 29 25" fill="none" xmlns="http://www.w3.org/2000/svg">
<path d="M7.15161 13L5.78801 13.625L6.18906 14.5L7.15161 14.5L7.15161 13ZM27.7123 14.0607C28.2981 13.4749 28.2981 12.5251 27.7123 11.9393L18.1663 2.3934C17.5805 1.80761 16.6308 1.80761 16.045 2.3934C15.4592 2.97918 15.4592 3.92893 16.045 4.51472L24.5303 13L16.045 21.4853C15.4592 22.0711 15.4592 23.0208 16.045 23.6066C16.6308 24.1924 17.5805 24.1924 18.1663 23.6066L27.7123 14.0607ZM0.288014 1.62498L5.78801 13.625L8.51521 12.375L3.01521 0.375018L0.288014 1.62498ZM7.15161 14.5L26.6516 14.5L26.6516 11.5L7.15161 11.5L7.15161 14.5Z" fill="black"/>
</svg>
